<svg width="512" height="215" fill="none" xmlns="http://www.w3.org/2000/svg"><path opacity=".4" d="M0 211v-11l11-5 12-3V34l-12-4-11-5V15h45l20-1a251 251 0 0148 1c9 1 16 4 23 7 6 3 11 8 15 14s6 14 6 24a42 42 0 01-12 30l-13 10-17 5v1l18 5c6 2 12 5 16 9a42 42 0 0117 36 49 49 0 01-25 43c-7 5-16 8-26 10a146 146 0 01-43 3 65229 65229 0 00-38-1H0zm85-17c12 0 21-3 27-10 7-7 11-16 11-28 0-7-2-13-4-17-2-5-5-9-9-11-4-3-9-5-14-6l-18-2H63v72a105 105 0 0022 2zm-13-92a162 162 0 0019-1c7-3 13-8 18-14 4-6 6-13 6-22 0-11-3-20-9-25-6-6-14-9-24-9a174 174 0 00-19 1v70h9zm236 68v11l1 9 19 3v10l-9 3a346 346 0 01-35 8h-10l-3-13-1-16h-1a37 37 0 01-26 27l-16 2c-6 0-11-1-17-3-5-1-9-4-13-7l-10-13c-2-4-3-10-3-16 0-8 2-15 5-20 3-6 8-10 15-14 6-3 15-6 26-7l39-4c2-16 1-28-2-35-3-8-9-12-18-12-6 0-11 1-16 3l-13 34h-12a90 90 0 01-9-17 207 207 0 01-5-20c7-5 17-9 28-11 11-3 23-5 35-5 11 0 20 2 26 4 7 2 12 6 16 10s7 8 8 14a503 503 0 011 76zm-63 22l10-2a26 26 0 0012-13l2-6v-28l-21 2-14 4c-3 3-5 5-6 9l-2 11c0 7 2 13 5 17s8 6 14 6zm173 19h-77v-11l18-7V23l-21-2V10l10-3 14-3a220 220 0 0128-4h10v193l18 7v11zm93 0h-77v-11l9-4 9-3V91l-18-3V78a97 97 0 0124-7 190 190 0 0125-4h10v126a93 93 0 0118 7v11zM448 25c0-7 2-12 6-16 5-3 11-5 18-5s13 2 17 5c5 4 7 9 7 16 0 6-2 11-7 15-4 4-10 6-17 6s-13-2-18-6c-4-4-6-9-6-15z" fill="#F8EEE4"/></svg>