<svg width="147" height="56" fill="none" xmlns="http://www.w3.org/2000/svg"><path d="M147 5c0 8-40 17-43 17l-3-1 1-3-2-5v-1l1-1 2 1 5 2 7-3-10-7V2l1-1h4l17 4 12-3h2l-5 2v2l8-4c2 1 3 1 3 3zm-20 14l6 7 2 1v-1c2 0 3-2 2-4v-6l-1-1-9 3v1zM27 7h-3V5h8v2h-3l-5 20h-3l-5-15-4 15H9L3 7H1V5h9v2a9 9 0 01-2 0l3 11v4l1-4 4-13h2l4 13 1 4h1v-4l3-11zM30 19l1-3 1-3 3-1 3-1 4 1a6 6 0 014 4 11 11 0 010 6 7 7 0 01-4 5h-7l-3-2-1-3-1-3zm5 0v3l1 2 1 1h3l1-1v-2a17 17 0 000-5v-2l-1-2h-2-1l-1 1-1 2v3zM56 15l-1 1-1 1v8a6 6 0 013 1v1h-9v-1l1-1h1V14l-2-1v-1h1a17 17 0 013-1h2v4a8 8 0 012-3l2-1h1l1 1v3h-4zM69 27h-8v-1l2-1V6h-2V5h1l1-1a23 23 0 013 0h1v21l2 1v1zM81 24v1l-1 1-1 1h-2l-4-2-2-6 1-3 1-3 3-1a9 9 0 014-1 6 6 0 011 1V6h-2V5h1a31 31 0 013-1h3v21h2v1h-1a23 23 0 01-4 1h-1v-3h-1zm-2 1l1-1 1-2v-8l-1-1h-1l-2 2-1 4v4l3 2zM2 47v-3l2-2 2-2 4-1 3 1a6 6 0 014 4 11 11 0 010 7 7 7 0 01-4 4H6l-3-2-1-2v-4zm4 0v3l1 2 1 1 2 1 1-1 1-1 1-2a17 17 0 000-5l-1-2-1-1-2-1-1 1-1 1-1 2v2zM28 32h2l2 1-1 2v2h-1l-1-3h-2l-1 1v5h3v2h-3v11l3 1v1H19v-1l2-1V42h-2v-1l2-1v-2l1-3a5 5 0 014-3h2zM38 41l2-1v-3h1l1-1a25 25 0 012 0h1v4h4v2h-4v10l2 1h2v1a8 8 0 01-3 1h-2l-3-1-1-3v-9h-2v-1zM59 43l-1 1-1 1v8a6 6 0 012 1v1h-9v-1l2-1V42h-2v-1l2-1a17 17 0 013 0l1-1h1v5a8 8 0 012-3l1-1 2-1v2l1 1v1h-4zM77 51v2h2v1l-1 1a37 37 0 01-4 0h-1v-1-2a4 4 0 01-2 2 5 5 0 01-3 1h-2l-1-1a4 4 0 01-1-3v-2l2-1 2-1 5-1v-4l-2-1-2 1-2 3h-1a10 10 0 01-1-2 23 23 0 010-2l3-1 3-1 3 1 2 1 1 1v2a55 55 0 010 7zm-7 2h1a3 3 0 001-2h1v-3h-3-1l-1 1v2l1 1 1 1zM87 55l-6-13-2-1v-1h8v1a30 30 0 01-2 1l3 8 1 2v-2l3-8-1-1h-1v-1h6v1h-1l-1 1-5 13h-2zM110 53l-1 1-1 1h-7a7 7 0 01-4-4l-1-4 2-5c2-2 3-3 6-3l3 1a5 5 0 013 4v4h-9l1 4 4 1h2l1-1 1 1zm-6-12h-1l-1 1-1 2v2h5v-4l-2-1zM121 55h-9v-1l2-1V35l-2-1v-1h3a23 23 0 013-1h1v21l2 1v1z" fill="#FCF5ED"/></svg>